<svg width="400" height="300" viewBox="0 0 400 300" xmlns="http://www.w3.org/2000/svg">
  <!-- Background sky -->
  <rect width="400" height="300" fill="#87CEEB"/>
  
  <!-- Canyon walls with layers -->
  <path d="M0 40 Q50 25 100 35 Q150 30 200 40 Q250 35 300 45 Q350 40 400 50 L400 300 L0 300 Z" fill="#8B7355"/>
  <path d="M0 70 Q60 55 120 65 Q180 60 240 70 Q300 65 360 75 Q380 70 400 80 L400 300 L0 300 Z" fill="#A0926B"/>
  <path d="M0 100 Q80 85 160 95 Q240 90 320 100 Q360 95 400 105 L400 300 L0 300 Z" fill="#B8A082"/>
  
  <!-- Stream at bottom -->
  <path d="M0 240 Q100 230 200 235 Q300 230 400 240 L400 300 L0 300 Z" fill="#4682B4"/>
  <path d="M0 250 Q150 240 300 245 Q350 242 400 250 L400 300 L0 300 Z" fill="#5F9EA0"/>
  
  <!-- Water ripples -->
  <ellipse cx="80" cy="245" rx="15" ry="3" fill="#87CEEB" opacity="0.6"/>
  <ellipse cx="200" cy="248" rx="20" ry="4" fill="#87CEEB" opacity="0.6"/>
  <ellipse cx="320" cy="246" rx="18" ry="3" fill="#87CEEB" opacity="0.6"/>
  
  <!-- Wooden hiking trail -->
  <path d="M20 200 Q80 190 140 195 Q200 190 260 195 Q320 190 380 200" stroke="#D2691E" stroke-width="8" fill="none"/>
  <path d="M20 200 Q80 190 140 195 Q200 190 260 195 Q320 190 380 200" stroke="#CD853F" stroke-width="6" fill="none"/>
  
  <!-- Trail planks (cross sections) -->
  <rect x="40" y="196" width="12" height="4" fill="#8B4513" transform="rotate(-5 46 198)"/>
  <rect x="80" y="191" width="12" height="4" fill="#8B4513" transform="rotate(-2 86 193)"/>
  <rect x="120" y="193" width="12" height="4" fill="#8B4513" transform="rotate(3 126 195)"/>
  <rect x="160" y="191" width="12" height="4" fill="#8B4513" transform="rotate(-1 166 193)"/>
  <rect x="200" y="189" width="12" height="4" fill="#8B4513" transform="rotate(2 206 191)"/>
  <rect x="240" y="192" width="12" height="4" fill="#8B4513" transform="rotate(-3 246 194)"/>
  <rect x="280" y="190" width="12" height="4" fill="#8B4513" transform="rotate(1 286 192)"/>
  <rect x="320" y="193" width="12" height="4" fill="#8B4513" transform="rotate(-2 326 195)"/>
  <rect x="360" y="197" width="12" height="4" fill="#8B4513" transform="rotate(4 366 199)"/>
  
  <!-- Boxwood trees (Şimşir ağaçları) -->
  <!-- Tree group 1 -->
  <rect x="25" y="150" width="4" height="20" fill="#654321"/>
  <ellipse cx="27" cy="150" rx="12" ry="18" fill="#228B22"/>
  <ellipse cx="24" cy="145" rx="8" ry="12" fill="#32CD32"/>
  <ellipse cx="30" cy="148" rx="10" ry="15" fill="#228B22"/>
  
  <rect x="45" y="155" width="3" height="15" fill="#654321"/>
  <ellipse cx="46.5" cy="155" rx="10" ry="15" fill="#228B22"/>
  <ellipse cx="44" cy="150" rx="7" ry="10" fill="#32CD32"/>
  
  <!-- Tree group 2 -->
  <rect x="350" y="145" width="5" height="25" fill="#654321"/>
  <ellipse cx="352.5" cy="145" rx="15" ry="20" fill="#228B22"/>
  <ellipse cx="348" cy="140" rx="10" ry="15" fill="#32CD32"/>
  <ellipse cx="357" cy="143" rx="12" ry="18" fill="#228B22"/>
  
  <rect x="370" y="150" width="4" height="20" fill="#654321"/>
  <ellipse cx="372" cy="150" rx="11" ry="16" fill="#228B22"/>
  <ellipse cx="369" cy="145" rx="8" ry="12" fill="#32CD32"/>
  
  <!-- Tree group 3 (middle) -->
  <rect x="180" y="120" width="4" height="30" fill="#654321"/>
  <ellipse cx="182" cy="120" rx="14" ry="22" fill="#228B22"/>
  <ellipse cx="178" cy="115" rx="10" ry="16" fill="#32CD32"/>
  <ellipse cx="186" cy="118" rx="12" ry="19" fill="#228B22"/>
  
  <rect x="200" y="125" width="3" height="25" fill="#654321"/>
  <ellipse cx="201.5" cy="125" rx="12" ry="18" fill="#228B22"/>
  <ellipse cx="198" cy="120" rx="8" ry="14" fill="#32CD32"/>
  
  <!-- Hikers on the trail -->
  <!-- Hiker 1 (with backpack) -->
  <circle cx="120" cy="180" r="4" fill="#FFE4C4"/> <!-- Head -->
  <rect x="118" y="184" width="4" height="8" fill="#FF6347"/> <!-- Body -->
  <rect x="116" y="192" width="2" height="6" fill="#000080"/> <!-- Legs -->
  <rect x="122" y="192" width="2" height="6" fill="#000080"/>
  <rect x="115" y="186" width="3" height="1" fill="#FFE4C4"/> <!-- Arm with walking stick -->
  <line x1="115" y1="187" x2="112" y2="195" stroke="#8B4513" stroke-width="2"/> <!-- Walking stick -->
  <rect x="119" y="183" width="3" height="6" fill="#654321"/> <!-- Backpack -->
  
  <!-- Hiker 2 (photographer) -->
  <circle cx="260" cy="182" r="4" fill="#FFE4C4"/>
  <rect x="258" y="186" width="4" height="8" fill="#32CD32"/>
  <rect x="256" y="194" width="2" height="6" fill="#000080"/>
  <rect x="262" y="194" width="2" height="6" fill="#000080"/>
  <rect x="254" y="188" width="4" height="2" fill="#000000"/> <!-- Camera -->
  <rect x="266" y="188" width="3" height="1" fill="#FFE4C4"/> <!-- Arm -->
  
  <!-- Hiker 3 (couple) -->
  <circle cx="320" cy="185" r="4" fill="#FFE4C4"/>
  <rect x="318" y="189" width="4" height="8" fill="#9370DB"/>
  <rect x="316" y="197" width="2" height="6" fill="#000080"/>
  <rect x="322" y="197" width="2" height="6" fill="#000080"/>
  
  <circle cx="335" cy="185" r="4" fill="#FFE4C4"/>
  <rect x="333" y="189" width="4" height="8" fill="#FF69B4"/>
  <rect x="331" y="197" width="2" height="6" fill="#000080"/>
  <rect x="337" y="197" width="2" height="6" fill="#000080"/>
  
  <!-- Trail markers and signs -->
  <rect x="100" y="170" width="2" height="15" fill="#8B4513"/>
  <rect x="95" y="170" width="12" height="8" fill="#FFD700"/>
  <text x="101" y="176" text-anchor="middle" font-family="Arial, sans-serif" font-size="6" fill="#333">1 km</text>
  
  <rect x="220" y="165" width="2" height="15" fill="#8B4513"/>
  <rect x="215" y="165" width="12" height="8" fill="#FFD700"/>
  <text x="221" y="171" text-anchor="middle" font-family="Arial, sans-serif" font-size="6" fill="#333">2 km</text>
  
  <!-- Wildlife -->
  <!-- Birds -->
  <path d="M150 80 Q155 78 160 80 Q155 82 150 80" fill="#2F4F4F"/>
  <path d="M250 70 Q255 68 260 70 Q255 72 250 70" fill="#2F4F4F"/>
  <path d="M300 85 Q305 83 310 85 Q305 87 300 85" fill="#2F4F4F"/>
  
  <!-- Butterflies -->
  <circle cx="180" cy="160" r="1" fill="#FF69B4"/>
  <ellipse cx="178" cy="159" rx="2" ry="1" fill="#FF1493" opacity="0.8"/>
  <ellipse cx="182" cy="159" rx="2" ry="1" fill="#FF1493" opacity="0.8"/>
  
  <circle cx="280" cy="170" r="1" fill="#FFD700"/>
  <ellipse cx="278" cy="169" rx="2" ry="1" fill="#FFA500" opacity="0.8"/>
  <ellipse cx="282" cy="169" rx="2" ry="1" fill="#FFA500" opacity="0.8"/>
  
  <!-- Flowers along the trail -->
  <circle cx="60" cy="205" r="2" fill="#FF69B4"/>
  <circle cx="65" cy="203" r="1.5" fill="#FF1493"/>
  <circle cx="70" cy="207" r="2" fill="#FF69B4"/>
  
  <circle cx="240" cy="200" r="2" fill="#9370DB"/>
  <circle cx="245" cy="198" r="1.5" fill="#8A2BE2"/>
  <circle cx="250" cy="202" r="2" fill="#9370DB"/>
  
  <circle cx="340" cy="205" r="2" fill="#FFD700"/>
  <circle cx="345" cy="203" r="1.5" fill="#FFA500"/>
  <circle cx="350" cy="207" r="2" fill="#FFD700"/>
  
  <!-- Rock formations -->
  <ellipse cx="80" cy="130" rx="15" ry="8" fill="#696969"/>
  <ellipse cx="320" cy="125" rx="20" ry="10" fill="#696969"/>
  <ellipse cx="200" cy="135" rx="12" ry="6" fill="#696969"/>
  
  <!-- Moss on rocks -->
  <circle cx="75" cy="128" r="2" fill="#228B22" opacity="0.7"/>
  <circle cx="85" cy="132" r="1.5" fill="#32CD32" opacity="0.7"/>
  <circle cx="315" cy="123" r="2.5" fill="#228B22" opacity="0.7"/>
  <circle cx="325" cy="127" r="2" fill="#32CD32" opacity="0.7"/>
  
  <!-- Clouds -->
  <circle cx="70" cy="35" r="12" fill="white" opacity="0.8"/>
  <circle cx="82" cy="35" r="15" fill="white" opacity="0.8"/>
  <circle cx="95" cy="35" r="12" fill="white" opacity="0.8"/>
  
  <circle cx="300" cy="45" r="10" fill="white" opacity="0.8"/>
  <circle cx="310" cy="45" r="13" fill="white" opacity="0.8"/>
  <circle cx="322" cy="45" r="10" fill="white" opacity="0.8"/>
  
  <!-- Title -->
  <text x="200" y="20" text-anchor="middle" font-family="Arial, sans-serif" font-size="18" font-weight="bold" fill="#2C2C2C">Doğa Yürüyüş Parkuru</text>
  
  <!-- Legend -->
  <g transform="translate(20, 20)">
    <rect x="0" y="0" width="150" height="100" fill="white" stroke="#ccc" stroke-width="1" rx="5" opacity="0.9"/>
    <text x="75" y="15" text-anchor="middle" font-family="Arial, sans-serif" font-size="12" font-weight="bold" fill="#333">Parkur Özellikleri</text>
    
    <path d="M10 25 Q20 23 30 25" stroke="#D2691E" stroke-width="3" fill="none"/>
    <text x="35" y="28" font-family="Arial, sans-serif" font-size="10" fill="#333">Ahşap Yürüyüş Yolu</text>
    
    <ellipse cx="15" cy="40" rx="8" ry="6" fill="#228B22"/>
    <text x="35" y="43" font-family="Arial, sans-serif" font-size="10" fill="#333">Şimşir Ağaçları</text>
    
    <rect x="10" y="50" width="8" height="6" fill="#FFD700"/>
    <text x="35" y="55" font-family="Arial, sans-serif" font-size="10" fill="#333">Mesafe İşaretleri</text>
    
    <circle cx="15" cy="65" r="3" fill="#FF69B4"/>
    <text x="35" y="68" font-family="Arial, sans-serif" font-size="10" fill="#333">Doğal Çiçekler</text>
    
    <path d="M10 78 Q15 76 20 78" fill="#2F4F4F"/>
    <text x="35" y="80" font-family="Arial, sans-serif" font-size="10" fill="#333">Kuş Gözlemi</text>
    
    <text x="75" y="95" text-anchor="middle" font-family="Arial, sans-serif" font-size="9" fill="#666">Süre: 1-3 saat</text>
  </g>
</svg>