<svg width="400" height="300" viewBox="0 0 400 300" xmlns="http://www.w3.org/2000/svg">
  <!-- Background sky with gradient -->
  <defs>
    <linearGradient id="skyGradient" x1="0%" y1="0%" x2="0%" y2="100%">
      <stop offset="0%" style="stop-color:#87CEEB;stop-opacity:1" />
      <stop offset="100%" style="stop-color:#E0F6FF;stop-opacity:1" />
    </linearGradient>
    <radialGradient id="sunGradient" cx="50%" cy="50%" r="50%">
      <stop offset="0%" style="stop-color:#FFD700;stop-opacity:0.8" />
      <stop offset="100%" style="stop-color:#FFA500;stop-opacity:0.4" />
    </radialGradient>
  </defs>
  
  <rect width="400" height="300" fill="url(#skyGradient)"/>
  
  <!-- Sun -->
  <circle cx="350" cy="50" r="25" fill="url(#sunGradient)"/>
  
  <!-- Canyon walls with vegetation -->
  <path d="M0 40 Q50 30 100 35 Q150 30 200 40 Q250 35 300 45 Q350 40 400 50 L400 300 L0 300 Z" fill="#8B7355"/>
  <path d="M0 70 Q60 60 120 65 Q180 60 240 70 Q300 65 360 75 Q380 70 400 80 L400 300 L0 300 Z" fill="#A0926B"/>
  <path d="M0 100 Q80 90 160 95 Q240 90 320 100 Q360 95 400 105 L400 300 L0 300 Z" fill="#B8A082"/>
  
  <!-- Stream -->
  <path d="M0 240 Q100 230 200 235 Q300 230 400 240 L400 300 L0 300 Z" fill="#4682B4"/>
  <path d="M0 250 Q150 240 300 245 Q350 242 400 250 L400 300 L0 300 Z" fill="#5F9EA0"/>
  
  <!-- Dense forest vegetation -->
  <!-- Large pine trees -->
  <polygon points="80,90 70,150 90,150" fill="#228B22"/>
  <polygon points="80,100 65,150 95,150" fill="#32CD32"/>
  <rect x="79" y="150" width="2" height="20" fill="#654321"/>
  
  <polygon points="320,85 310,145 330,145" fill="#228B22"/>
  <polygon points="320,95 305,145 335,145" fill="#32CD32"/>
  <rect x="319" y="145" width="2" height="20" fill="#654321"/>
  
  <polygon points="150,95 140,155 160,155" fill="#228B22"/>
  <polygon points="150,105 135,155 165,155" fill="#32CD32"/>
  <rect x="149" y="155" width="2" height="18" fill="#654321"/>
  
  <!-- Boxwood bushes (Şimşir) -->
  <ellipse cx="60" cy="170" rx="15" ry="12" fill="#228B22"/>
  <ellipse cx="65" cy="168" rx="10" ry="8" fill="#32CD32"/>
  <ellipse cx="55" cy="172" rx="8" ry="6" fill="#228B22"/>
  
  <ellipse cx="280" cy="175" rx="18" ry="14" fill="#228B22"/>
  <ellipse cx="285" cy="173" rx="12" ry="10" fill="#32CD32"/>
  <ellipse cx="275" cy="177" rx="10" ry="8" fill="#228B22"/>
  
  <ellipse cx="200" cy="180" rx="12" ry="9" fill="#228B22"/>
  <ellipse cx="205" cy="178" rx="8" ry="6" fill="#32CD32"/>
  
  <!-- Wildlife observation platform -->
  <rect x="180" y="190" width="60" height="30" fill="#D2691E" rx="3"/>
  <rect x="185" y="195" width="50" height="20" fill="#CD853F" rx="2"/>
  
  <!-- Platform railings -->
  <rect x="180" y="185" width="60" height="2" fill="#8B4513"/>
  <rect x="180" y="185" width="2" height="10" fill="#8B4513"/>
  <rect x="238" y="185" width="2" height="10" fill="#8B4513"/>
  
  <!-- Support posts -->
  <rect x="190" y="220" width="3" height="20" fill="#8B4513"/>
  <rect x="210" y="220" width="3" height="20" fill="#8B4513"/>
  <rect x="230" y="220" width="3" height="20" fill="#8B4513"/>
  
  <!-- Wildlife observers -->
  <!-- Birdwatcher with binoculars -->
  <circle cx="200" cy="175" r="4" fill="#FFE4C4"/>
  <rect x="198" y="179" width="4" height="8" fill="#8FBC8F"/>
  <rect x="196" y="187" width="2" height="6" fill="#000080"/>
  <rect x="202" y="187" width="2" height="6" fill="#000080"/>
  <rect x="194" y="181" width="6" height="3" fill="#000000"/> <!-- Binoculars -->
  <circle cx="191" cy="182" r="1" fill="#333333"/> <!-- Left lens -->
  <circle cx="197" cy="182" r="1" fill="#333333"/> <!-- Right lens -->
  
  <!-- Nature photographer -->
  <circle cx="220" cy="175" r="4" fill="#FFE4C4"/>
  <rect x="218" y="179" width="4" height="8" fill="#FF6347"/>
  <rect x="216" y="187" width="2" height="6" fill="#000080"/>
  <rect x="222" y="187" width="2" height="6" fill="#000080"/>
  <rect x="214" y="181" width="8" height="4" fill="#000000"/> <!-- Camera with telephoto lens -->
  <circle cx="210" cy="183" r="2" fill="#333333"/> <!-- Large lens -->
  
  <!-- Birds in flight -->
  <!-- Eagles/Hawks -->
  <g transform="translate(120, 80)">
    <path d="M0 0 Q-8 -2 -15 0 Q-8 2 0 0" fill="#8B4513"/>
    <path d="M0 0 Q8 -2 15 0 Q8 2 0 0" fill="#8B4513"/>
    <circle cx="0" cy="0" r="1" fill="#654321"/>
  </g>
  
  <g transform="translate(250, 70)">
    <path d="M0 0 Q-10 -3 -18 0 Q-10 3 0 0" fill="#696969"/>
    <path d="M0 0 Q10 -3 18 0 Q10 3 0 0" fill="#696969"/>
    <circle cx="0" cy="0" r="1.5" fill="#2F4F4F"/>
  </g>
  
  <!-- Smaller birds -->
  <path d="M300 90 Q295 88 290 90 Q295 92 300 90" fill="#4169E1"/>
  <path d="M180 85 Q175 83 170 85 Q175 87 180 85" fill="#DC143C"/>
  <path d="M350 95 Q345 93 340 95 Q345 97 350 95" fill="#FFD700"/>
  
  <!-- Butterflies -->
  <g transform="translate(160, 160)">
    <circle cx="0" cy="0" r="0.5" fill="#000000"/>
    <ellipse cx="-2" cy="-1" rx="3" ry="2" fill="#FF69B4" opacity="0.8"/>
    <ellipse cx="2" cy="-1" rx="3" ry="2" fill="#FF69B4" opacity="0.8"/>
    <ellipse cx="-2" cy="1" rx="2" ry="1.5" fill="#FF1493" opacity="0.8"/>
    <ellipse cx="2" cy="1" rx="2" ry="1.5" fill="#FF1493" opacity="0.8"/>
  </g>
  
  <g transform="translate(260, 165)">
    <circle cx="0" cy="0" r="0.5" fill="#000000"/>
    <ellipse cx="-2" cy="-1" rx="3" ry="2" fill="#FFD700" opacity="0.8"/>
    <ellipse cx="2" cy="-1" rx="3" ry="2" fill="#FFD700" opacity="0.8"/>
    <ellipse cx="-2" cy="1" rx="2" ry="1.5" fill="#FFA500" opacity="0.8"/>
    <ellipse cx="2" cy="1" rx="2" ry="1.5" fill="#FFA500" opacity="0.8"/>
  </g>
  
  <g transform="translate(100, 170)">
    <circle cx="0" cy="0" r="0.5" fill="#000000"/>
    <ellipse cx="-2" cy="-1" rx="3" ry="2" fill="#9370DB" opacity="0.8"/>
    <ellipse cx="2" cy="-1" rx="3" ry="2" fill="#9370DB" opacity="0.8"/>
    <ellipse cx="-2" cy="1" rx="2" ry="1.5" fill="#8A2BE2" opacity="0.8"/>
    <ellipse cx="2" cy="1" rx="2" ry="1.5" fill="#8A2BE2" opacity="0.8"/>
  </g>
  
  <!-- Endemic flowers -->
  <!-- Wild orchids -->
  <g transform="translate(70, 200)">
    <rect x="0" y="0" width="1" height="15" fill="#228B22"/>
    <ellipse cx="0" cy="-2" rx="2" ry="3" fill="#DA70D6"/>
    <ellipse cx="0" cy="-4" rx="1.5" ry="2" fill="#FF69B4"/>
    <circle cx="0" cy="-3" r="0.5" fill="#FFD700"/>
  </g>
  
  <g transform="translate(320, 205)">
    <rect x="0" y="0" width="1" height="12" fill="#228B22"/>
    <ellipse cx="0" cy="-2" rx="2" ry="3" fill="#9370DB"/>
    <ellipse cx="0" cy="-4" rx="1.5" ry="2" fill="#8A2BE2"/>
    <circle cx="0" cy="-3" r="0.5" fill="#FFD700"/>
  </g>
  
  <!-- Wild roses -->
  <g transform="translate(120, 210)">
    <rect x="0" y="0" width="1" height="10" fill="#228B22"/>
    <circle cx="0" cy="-2" r="2" fill="#FF69B4"/>
    <circle cx="-1" cy="-3" r="1" fill="#FF1493"/>
    <circle cx="1" cy="-1" r="1" fill="#FF1493"/>
    <circle cx="0" cy="-2" r="0.5" fill="#FFD700"/>
  </g>
  
  <g transform="translate(280, 215)">
    <rect x="0" y="0" width="1" height="8" fill="#228B22"/>
    <circle cx="0" cy="-2" r="2" fill="#FFB6C1"/>
    <circle cx="-1" cy="-3" r="1" fill="#FF69B4"/>
    <circle cx="1" cy="-1" r="1" fill="#FF69B4"/>
    <circle cx="0" cy="-2" r="0.5" fill="#FFD700"/>
  </g>
  
  <!-- Observation equipment -->
  <!-- Telescope on tripod -->
  <rect x="250" y="195" width="2" height="15" fill="#696969"/>
  <rect x="245" y="210" width="3" height="8" fill="#696969"/>
  <rect x="252" y="210" width="3" height="8" fill="#696969"/>
  <rect x="248" y="218" width="3" height="8" fill="#696969"/>
  <rect x="245" y="190" width="10" height="3" fill="#2F4F4F"/>
  <circle cx="240" cy="191" r="2" fill="#000000"/> <!-- Eyepiece -->
  
  <!-- Field notebook -->
  <rect x="190" y="200" width="8" height="6" fill="#F5F5DC"/>
  <rect x="191" y="201" width="6" height="4" fill="#FFFFFF"/>
  <line x1="192" y1="202" x2="196" y2="202" stroke="#000000" stroke-width="0.3"/>
  <line x1="192" y1="203" x2="196" y2="203" stroke="#000000" stroke-width="0.3"/>
  <line x1="192" y1="204" x2="196" y2="204" stroke="#000000" stroke-width="0.3"/>
  
  <!-- Information signs -->
  <rect x="140" y="160" width="2" height="15" fill="#8B4513"/>
  <rect x="135" y="160" width="12" height="10" fill="#F5DEB3"/>
  <text x="141" y="167" text-anchor="middle" font-family="Arial, sans-serif" font-size="6" fill="#333">Flora</text>
  
  <rect x="300" y="155" width="2" height="15" fill="#8B4513"/>
  <rect x="295" y="155" width="12" height="10" fill="#F5DEB3"/>
  <text x="301" y="162" text-anchor="middle" font-family="Arial, sans-serif" font-size="6" fill="#333">Fauna</text>
  
  <!-- Dragonflies near water -->
  <g transform="translate(150, 235)">
    <ellipse cx="0" cy="0" rx="0.5" ry="3" fill="#4169E1" opacity="0.7"/>
    <ellipse cx="-1" cy="-1" rx="2" ry="0.5" fill="#87CEEB" opacity="0.6"/>
    <ellipse cx="1" cy="-1" rx="2" ry="0.5" fill="#87CEEB" opacity="0.6"/>
    <ellipse cx="-1" cy="1" rx="1.5" ry="0.4" fill="#B0E0E6" opacity="0.6"/>
    <ellipse cx="1" cy="1" rx="1.5" ry="0.4" fill="#B0E0E6" opacity="0.6"/>
  </g>
  
  <g transform="translate(250, 238)">
    <ellipse cx="0" cy="0" rx="0.5" ry="3" fill="#32CD32" opacity="0.7"/>
    <ellipse cx="-1" cy="-1" rx="2" ry="0.5" fill="#98FB98" opacity="0.6"/>
    <ellipse cx="1" cy="-1" rx="2" ry="0.5" fill="#98FB98" opacity="0.6"/>
    <ellipse cx="-1" cy="1" rx="1.5" ry="0.4" fill="#90EE90" opacity="0.6"/>
    <ellipse cx="1" cy="1" rx="1.5" ry="0.4" fill="#90EE90" opacity="0.6"/>
  </g>
  
  <!-- Clouds -->
  <circle cx="70" cy="35" r="12" fill="white" opacity="0.8"/>
  <circle cx="82" cy="35" r="15" fill="white" opacity="0.8"/>
  <circle cx="95" cy="35" r="12" fill="white" opacity="0.8"/>
  
  <!-- Title -->
  <text x="200" y="20" text-anchor="middle" font-family="Arial, sans-serif" font-size="18" font-weight="bold" fill="#2C2C2C">Doğa Gözlemciliği</text>
  
  <!-- Legend -->
  <g transform="translate(15, 25)">
    <rect x="0" y="0" width="170" height="130" fill="white" stroke="#ccc" stroke-width="1" rx="5" opacity="0.95"/>
    <text x="85" y="15" text-anchor="middle" font-family="Arial, sans-serif" font-size="12" font-weight="bold" fill="#333">Gözlem Alanları</text>
    
    <g transform="translate(10, 25)">
      <path d="M0 0 Q-5 -2 -10 0 Q-5 2 0 0" fill="#8B4513"/>
      <path d="M0 0 Q5 -2 10 0 Q5 2 0 0" fill="#8B4513"/>
      <text x="15" y="3" font-family="Arial, sans-serif" font-size="10" fill="#333">Yırtıcı Kuşlar</text>
    </g>
    
    <g transform="translate(10, 40)">
      <ellipse cx="0" cy="0" rx="2" ry="1.5" fill="#FF69B4" opacity="0.8"/>
      <ellipse cx="4" cy="0" rx="2" ry="1.5" fill="#FF69B4" opacity="0.8"/>
      <text x="15" y="3" font-family="Arial, sans-serif" font-size="10" fill="#333">Kelebekler</text>
    </g>
    
    <g transform="translate(10, 55)">
      <ellipse cx="0" cy="0" rx="8" ry="6" fill="#228B22"/>
      <text x="15" y="3" font-family="Arial, sans-serif" font-size="10" fill="#333">Şimşir Ormanları</text>
    </g>
    
    <g transform="translate(10, 70)">
      <circle cx="0" cy="0" r="2" fill="#DA70D6"/>
      <text x="15" y="3" font-family="Arial, sans-serif" font-size="10" fill="#333">Endemik Çiçekler</text>
    </g>
    
    <g transform="translate(10, 85)">
      <ellipse cx="0" cy="0" rx="2" ry="0.5" fill="#87CEEB" opacity="0.6"/>
      <text x="15" y="3" font-family="Arial, sans-serif" font-size="10" fill="#333">Yusufçuklar</text>
    </g>
    
    <g transform="translate(10, 100)">
      <rect x="0" y="0" width="8" height="3" fill="#2F4F4F"/>
      <text x="15" y="3" font-family="Arial, sans-serif" font-size="10" fill="#333">Gözlem Teleskopları</text>
    </g>
    
    <text x="85" y="125" text-anchor="middle" font-family="Arial, sans-serif" font-size="9" fill="#666">En İyi Saatler: 06:00-09:00, 16:00-18:00</text>
  </g>
</svg>